<svg xmlns="http://www.w3.org/2000/svg" viewBox="0 0 64 64" fill="none">
  <defs>
    <linearGradient id="bag" x1="0" y1="0" x2="1" y2="1">
      <stop offset="0" stop-color="#FF6B35"/>
      <stop offset="1" stop-color="#FF8A5C"/>
    </linearGradient>
  </defs>
  <!-- Shopping bag handle (arched) -->
  <path d="M22 24 V18 a10 10 0 0 1 20 0 V24" fill="none" stroke="url(#bag)" stroke-width="5" stroke-linecap="round"/>
  <!-- Bag body (trapezoid with rounded corners) -->
  <path d="M14 22 h36 a4 4 0 0 1 4 4 l-3 28 a6 6 0 0 1 -6 5.5 H19 a6 6 0 0 1 -6 -5.5 l-3 -28 a4 4 0 0 1 4 -4 z" fill="url(#bag)"/>
  <!-- Speech bubble (white) -->
  <path d="M24 32 h16 a3 3 0 0 1 3 3 v8 a3 3 0 0 1 -3 3 h-9 l-5 4 v-4 h-2 a3 3 0 0 1 -3 -3 v-8 a3 3 0 0 1 3 -3 z" fill="#FFFFFF"/>
</svg>
